<svg width="194" height="53" viewBox="0 0 194 53" fill="none" xmlns="http://www.w3.org/2000/svg">
<path d="M1.86239 7.32169L17.536 4.23931C17.536 4.23931 18.7302 3.78823 20.3722 4.38967L34.777 7.09615C34.777 7.09615 36.1951 7.17133 36.1951 8.52457L36.419 22.8839C36.419 22.8839 36.3443 29.8005 33.8813 34.1609C33.8813 34.1609 30.672 41.7541 21.5664 45.8138C21.5664 45.8138 20.1483 46.4905 19.7005 46.6408C19.7005 46.6408 18.2824 47.1671 16.8643 46.3401C16.8643 46.3401 7.16157 42.2804 2.83266 33.5595C2.83266 33.5595 -0.525966 28.8232 0.0711236 15.9674V9.20119C0.0711236 9.20119 -0.376694 7.54723 1.86239 7.32169Z" fill="#5ED1C0"/>
<path d="M11.6397 17.3206C11.6397 17.3206 11.0426 14.6142 15.1476 14.2383L25.3728 14.1631C25.3728 14.1631 26.7162 14.0127 26.4177 15.2908L25.8206 17.7717C25.8206 17.7717 25.5967 18.8994 24.3279 18.8994H17.536C17.536 18.8994 16.4164 18.8994 16.4164 19.9519L16.4911 22.8088C16.4911 22.8088 16.4911 23.6357 17.536 23.6357H23.3576C23.3576 23.6357 24.3279 23.4854 24.2532 24.3124L23.6561 26.7933C23.6561 26.7933 23.4322 28.0714 22.0888 28.1465L18.5062 28.2217C18.5062 28.2217 16.715 28.1465 16.6403 29.4246L16.5657 33.7099C16.5657 33.7099 16.6403 35.5142 15.5208 35.8149C15.5208 35.8149 14.1027 36.266 13.0578 36.4163C13.0578 36.4163 12.0129 36.7922 12.0129 35.5894L11.6397 17.3206Z" fill="#1C2C3A"/>
<path d="M48.8077 42V10.1636H69.8868V15.7132H55.5387V23.2992H68.4878V28.8488H55.5387V42H48.8077ZM82.8878 42.4664C80.4732 42.4664 78.3849 41.9534 76.6232 40.9274C74.8717 39.891 73.5193 38.4505 72.5659 36.6058C71.6125 34.7508 71.1357 32.6004 71.1357 30.1546C71.1357 27.6881 71.6125 25.5325 72.5659 23.6878C73.5193 21.8328 74.8717 20.3923 76.6232 19.3663C78.3849 18.33 80.4732 17.8118 82.8878 17.8118C85.3025 17.8118 87.3856 18.33 89.137 19.3663C90.8988 20.3923 92.2564 21.8328 93.2098 23.6878C94.1632 25.5325 94.64 27.6881 94.64 30.1546C94.64 32.6004 94.1632 34.7508 93.2098 36.6058C92.2564 38.4505 90.8988 39.891 89.137 40.9274C87.3856 41.9534 85.3025 42.4664 82.8878 42.4664ZM82.9189 37.3365C84.0175 37.3365 84.9346 37.0256 85.6704 36.4038C86.4062 35.7716 86.9607 34.9114 87.3337 33.8233C87.7172 32.7351 87.9089 31.4967 87.9089 30.108C87.9089 28.7193 87.7172 27.4809 87.3337 26.3927C86.9607 25.3045 86.4062 24.4444 85.6704 23.8122C84.9346 23.18 84.0175 22.864 82.9189 22.864C81.81 22.864 80.8773 23.18 80.1208 23.8122C79.3746 24.4444 78.8098 25.3045 78.4264 26.3927C78.0533 27.4809 77.8668 28.7193 77.8668 30.108C77.8668 31.4967 78.0533 32.7351 78.4264 33.8233C78.8098 34.9114 79.3746 35.7716 80.1208 36.4038C80.8773 37.0256 81.81 37.3365 82.9189 37.3365ZM98.5082 42V18.1227H104.928V22.2888H105.177C105.612 20.8068 106.343 19.6876 107.369 18.931C108.395 18.1642 109.576 17.7807 110.913 17.7807C111.245 17.7807 111.602 17.8014 111.986 17.8429C112.369 17.8843 112.706 17.9413 112.996 18.0139V23.8899C112.685 23.7967 112.255 23.7138 111.706 23.6412C111.157 23.5687 110.654 23.5324 110.198 23.5324C109.224 23.5324 108.353 23.7448 107.587 24.1697C106.83 24.5843 106.229 25.1646 105.783 25.9108C105.348 26.657 105.13 27.5171 105.13 28.4913V42H98.5082ZM129.88 18.1227V23.0971H115.5V18.1227H129.88ZM118.765 12.4021H125.387V34.6627C125.387 35.2741 125.48 35.7509 125.667 36.0929C125.853 36.4245 126.113 36.6577 126.444 36.7924C126.786 36.9271 127.18 36.9945 127.626 36.9945C127.937 36.9945 128.247 36.9686 128.558 36.9167C128.869 36.8546 129.108 36.8079 129.273 36.7768L130.315 41.7046C129.983 41.8083 129.517 41.9275 128.916 42.0622C128.315 42.2073 127.584 42.2954 126.724 42.3264C125.128 42.3886 123.729 42.1762 122.527 41.6891C121.335 41.202 120.407 40.4455 119.744 39.4195C119.081 38.3935 118.755 37.0981 118.765 35.5332V12.4021ZM133.756 42V18.1227H140.378V42H133.756ZM137.082 15.0448C136.098 15.0448 135.253 14.7183 134.548 14.0654C133.854 13.4022 133.507 12.6094 133.507 11.687C133.507 10.775 133.854 9.9926 134.548 9.33971C135.253 8.67645 136.098 8.34482 137.082 8.34482C138.067 8.34482 138.906 8.67645 139.601 9.33971C140.305 9.9926 140.658 10.775 140.658 11.687C140.658 12.6094 140.305 13.4022 139.601 14.0654C138.906 14.7183 138.067 15.0448 137.082 15.0448ZM145.245 50.954V18.1227H151.774V22.1333H152.069C152.359 21.4908 152.779 20.8379 153.328 20.1747C153.888 19.501 154.613 18.9414 155.505 18.4958C156.406 18.0398 157.526 17.8118 158.862 17.8118C160.603 17.8118 162.21 18.2678 163.681 19.1798C165.153 20.0814 166.329 21.4442 167.21 23.2681C168.091 25.0817 168.532 27.3565 168.532 30.0924C168.532 32.7558 168.101 35.0047 167.241 36.839C166.391 38.663 165.231 40.0465 163.759 40.9896C162.298 41.9223 160.66 42.3886 158.847 42.3886C157.562 42.3886 156.468 42.1762 155.567 41.7513C154.676 41.3264 153.945 40.7927 153.375 40.1501C152.805 39.4972 152.37 38.8392 152.069 38.1759H151.867V50.954H145.245ZM151.727 30.0613C151.727 31.4811 151.924 32.7196 152.318 33.7766C152.712 34.8337 153.282 35.6576 154.028 36.2483C154.774 36.8287 155.681 37.1188 156.748 37.1188C157.826 37.1188 158.738 36.8235 159.484 36.2328C160.23 35.6317 160.795 34.8026 161.179 33.7455C161.572 32.6781 161.769 31.45 161.769 30.0613C161.769 28.683 161.578 27.4705 161.194 26.4238C160.811 25.3771 160.246 24.5584 159.5 23.9677C158.754 23.3769 157.836 23.0816 156.748 23.0816C155.671 23.0816 154.759 23.3666 154.012 23.9366C153.277 24.5066 152.712 25.3149 152.318 26.3616C151.924 27.4083 151.727 28.6416 151.727 30.0613ZM172.509 42V18.1227H179.131V42H172.509ZM175.835 15.0448C174.851 15.0448 174.006 14.7183 173.301 14.0654C172.607 13.4022 172.26 12.6094 172.26 11.687C172.26 10.775 172.607 9.9926 173.301 9.33971C174.006 8.67645 174.851 8.34482 175.835 8.34482C176.82 8.34482 177.659 8.67645 178.354 9.33971C179.058 9.9926 179.411 10.775 179.411 11.687C179.411 12.6094 179.058 13.4022 178.354 14.0654C177.659 14.7183 176.82 15.0448 175.835 15.0448ZM183.998 42V18.1227H190.62V42H183.998ZM187.324 15.0448C186.34 15.0448 185.495 14.7183 184.791 14.0654C184.096 13.4022 183.749 12.6094 183.749 11.687C183.749 10.775 184.096 9.9926 184.791 9.33971C185.495 8.67645 186.34 8.34482 187.324 8.34482C188.309 8.34482 189.148 8.67645 189.843 9.33971C190.547 9.9926 190.9 10.775 190.9 11.687C190.9 12.6094 190.547 13.4022 189.843 14.0654C189.148 14.7183 188.309 15.0448 187.324 15.0448Z" fill="#1C2C3A"/>
</svg>
