<svg width="37" height="50" viewBox="0 0 37 50" fill="none" xmlns="http://www.w3.org/2000/svg">
<path d="M3.6593 44.3965C3.61327 44.3505 3.59026 44.3044 3.54423 44.2584C3.49821 44.0053 3.42917 43.7751 3.10699 43.7521C3.13001 43.6371 3.10699 43.522 3.03796 43.43C2.62373 42.9697 2.32456 42.4404 2.00239 41.9111C1.31201 40.7605 0.851756 39.5178 0.575605 38.2291C0.529579 38.045 0.598617 37.7688 0.299453 37.7458C0.299453 37.6998 0.27644 37.6308 0.27644 37.5847C0.437529 37.5617 0.414516 37.4467 0.391503 37.3316C0.253427 36.4801 0.161377 35.6287 0.161377 34.7542C0.18439 30.3588 0.161377 25.9864 0.18439 21.591C0.18439 20.9466 0.27644 20.3483 0.598617 19.773C0.759706 19.5198 0.874769 19.2207 0.920794 18.9215C1.289 18.8064 1.45008 18.4843 1.61117 18.1621C1.68021 18.1621 1.77226 18.1851 1.81829 18.1621C2.55469 17.6328 3.36013 17.2416 4.28064 17.1035C4.32666 17.1035 4.37269 17.0115 4.44173 16.9654C4.53378 16.9654 4.60282 16.9654 4.69487 16.9424C5.04006 17.1956 5.43127 17.0575 5.79947 17.0115C5.89152 16.9884 5.91454 16.9194 5.91454 16.8274C5.86851 15.0554 5.82248 13.3064 5.96056 11.5344C6.00659 11.0742 6.16767 10.637 6.19069 10.1537C6.2137 9.37126 6.60491 8.65787 6.83504 7.92147C6.9501 7.53025 7.31831 7.20807 7.22626 6.74782C7.24927 6.7018 7.27228 6.67878 7.27228 6.63276C7.41036 6.63276 7.47939 6.56372 7.52542 6.44866C7.70952 6.01142 8.0317 5.64321 8.30785 5.27501C9.15932 4.17041 10.0798 3.11182 11.2995 2.39843C11.4146 2.3294 11.5296 2.23734 11.5066 2.07626C11.5987 2.09927 11.6677 2.05324 11.6907 1.93818C11.7137 1.91517 11.7367 1.89216 11.7597 1.91517C11.9669 1.91517 12.174 1.84613 12.3581 1.73107C12.7033 1.47793 13.0945 1.31684 13.5087 1.15575C13.8539 1.04069 14.2911 1.0637 14.4752 0.672486C14.4982 0.672486 14.5213 0.649474 14.5673 0.649474C15.0045 0.695499 15.3957 0.626461 15.7639 0.350309C15.902 0.327297 16.0401 0.304284 16.2012 0.258259C16.7075 0.350309 17.1907 0.373322 17.628 0.0741577C17.674 0.0741577 17.743 0.0741577 17.7891 0.0741577C17.9041 0.350309 18.1573 0.212233 18.3414 0.212233C18.5255 0.212233 18.6865 0.189221 18.8706 0.189221C19.515 0.212234 20.1594 0.396335 20.8267 0.281271C20.9418 0.304284 21.0568 0.327297 21.1949 0.327297C21.2179 0.488385 21.379 0.488385 21.4941 0.511398C22.1615 0.695499 22.8058 0.8796 23.4271 1.17876C23.6573 1.29383 23.9104 1.4319 24.1866 1.36287C24.4627 1.70805 24.8079 1.93818 25.2682 1.98421C25.2912 2.05324 25.3602 2.07626 25.4292 2.07626C25.5903 2.5135 25.9815 2.60555 26.3728 2.74362C26.3958 2.81266 26.3728 2.90471 26.4188 2.95074C26.9021 3.38798 27.3623 3.87124 27.8226 4.35451C28.3749 4.92982 28.8581 5.57418 29.2493 6.24154C29.8477 7.18506 30.3079 8.24364 30.6071 9.32524C31.0213 10.9131 31.0213 12.524 31.1134 14.1349C31.1594 14.9403 30.9983 15.7458 31.0213 16.5742C31.0213 16.7353 30.9753 16.9194 31.2284 16.9654H31.2514L31.2745 16.9884C31.5276 17.2646 31.8498 17.0575 32.1259 17.1265C32.1029 17.2186 32.0799 17.2876 32.0339 17.3797C31.8728 17.3797 31.8728 17.5177 31.8728 17.6328C23.128 17.6328 14.3832 17.6328 5.63838 17.6328C5.36223 17.6328 5.10909 17.6328 4.85595 17.7248C4.78692 17.7479 4.69487 17.7709 4.62583 17.7939C4.53378 17.7939 4.46474 17.8169 4.37269 17.8169C3.59026 17.8859 2.89988 18.1391 2.32456 18.7144C2.23251 18.7374 2.14046 18.8064 2.09444 18.8985C2.00239 18.9445 1.93335 19.0136 1.91034 19.1286C1.21996 19.819 0.943807 20.6935 0.943807 21.66C0.943807 25.6872 0.943807 29.7144 0.943807 33.7646C0.943807 34.5701 0.874769 35.3985 1.01284 36.204C1.01284 36.296 1.03586 36.3651 1.03586 36.4571C1.05887 37.0094 1.15092 37.5387 1.26598 38.068C1.49611 39.0806 1.77226 40.0701 2.32456 40.9676C2.85386 42.1873 3.63628 43.2689 4.55679 44.2124C7.52542 47.227 11.1154 48.7689 15.3497 48.7459C17.1447 48.7459 18.9167 48.7229 20.7117 48.7689C24.3937 48.8609 27.7765 48.0095 30.7452 45.7312C33.7368 43.43 35.5318 40.4613 35.992 36.7103C36.1761 35.2375 36.0841 33.7647 36.0841 32.2918C36.1071 29.9215 36.1071 27.5512 36.1071 25.1579C36.2222 25.296 36.1761 25.4801 36.1761 25.6412C36.1761 29.024 36.1761 32.3839 36.1761 35.7667C36.1761 36.4801 36.0841 37.1705 35.946 37.8379C35.854 38.2751 35.7389 38.7584 36.0841 39.1496C36.1301 39.4718 35.923 39.7249 35.8079 40.0241C35.5088 40.8525 35.0715 41.658 34.6343 42.4174C34.105 43.2689 33.4837 44.0743 32.7243 44.7877C31.9648 45.5011 31.2054 46.2145 30.3079 46.7438C30.1468 46.8358 29.8937 46.9049 29.9167 47.181C29.7326 47.181 29.5485 47.2501 29.3874 47.3421C27.7765 48.2626 26.0276 48.8609 24.1866 49.1831C23.5652 49.2982 22.8979 49.3442 22.2765 49.3442C20.2054 49.3672 18.1112 49.3442 16.0401 49.3442C14.7054 49.3442 13.3936 49.3902 12.0819 48.999C11.2995 48.7689 10.425 48.7459 9.68861 48.3086C9.55053 48.2396 9.38944 48.0785 9.20534 48.2626C9.18233 48.2626 9.15932 48.2626 9.1363 48.2396C9.11329 48.0325 8.90618 48.0095 8.7681 47.9404C8.12375 47.5952 7.45638 47.3191 6.85805 46.9049C5.89152 46.2605 4.97102 45.5701 4.18859 44.6956C3.98147 44.5346 3.86641 44.3965 3.6593 44.3965ZM12.4271 7.36916C12.5192 7.34615 12.5652 7.27711 12.5882 7.20807C12.6342 7.16205 12.7033 7.09301 12.7493 7.04699C12.7723 7.02397 12.7953 7.00096 12.8413 6.95494C13.8079 6.12648 14.8434 5.41309 16.1091 5.09091C19.3539 4.23944 22.1384 5.02187 24.4167 7.50724C25.7744 9.00306 26.3498 10.8441 26.3728 12.8462C26.3728 14.0658 26.3728 15.2855 26.3728 16.5052C26.3728 16.7353 26.3728 16.9194 26.6949 16.8964C27.7995 16.8734 28.8811 16.8964 29.9857 16.8964C30.2389 16.8964 30.3309 16.8274 30.3309 16.5742C30.3079 14.8713 30.446 13.1683 30.2619 11.4654C29.7786 7.09301 27.5464 3.87124 23.6343 1.93818C18.5945 -0.478146 12.8643 0.78755 9.22835 4.99886C8.07772 6.33359 7.29529 7.85243 6.85805 9.55536C6.71998 9.94658 6.62793 10.3148 6.60491 10.729C6.60491 10.775 6.5819 10.8441 6.5819 10.8901C6.55889 10.9361 6.51286 10.9821 6.51286 11.0282C6.37479 12.8922 6.46684 14.7562 6.44383 16.6202C6.44383 16.8274 6.51286 16.8964 6.71998 16.8964C7.8476 16.8964 8.99823 16.8964 10.1258 16.8964C10.356 16.8964 10.425 16.8274 10.402 16.5972C10.402 16.183 10.425 15.7918 10.425 15.3776C10.425 14.2499 10.402 13.0993 10.402 11.9717C10.425 11.8796 10.448 11.8106 10.471 11.7185C10.5401 11.6035 10.5401 11.4884 10.5171 11.3734C10.5401 11.2813 10.5401 11.2123 10.5631 11.1202C10.6551 10.752 10.7472 10.4068 10.8392 10.0386C11.0464 9.57837 11.2535 9.14114 11.4376 8.68088C11.5756 8.61185 11.6217 8.47377 11.6677 8.33569C11.7828 8.24364 11.8518 8.15159 11.8518 8.01352C12.0589 7.85243 12.22 7.64531 12.3581 7.41519C12.3581 7.4382 12.3811 7.39217 12.4271 7.36916ZM18.3414 16.9194C20.6426 16.9194 22.9209 16.9194 25.2221 16.9194C25.4062 16.9194 25.5903 16.9654 25.5903 16.6663C25.5213 15.0324 25.7054 13.3985 25.4983 11.7876C25.015 7.76038 21.31 4.99886 17.3058 5.6202C13.8769 6.17251 11.4376 8.79595 11.2305 12.2709C11.1384 13.6516 11.2074 15.0554 11.1844 16.4361C11.1844 16.8043 11.2535 16.9424 11.6677 16.9424C13.8769 16.8964 16.1091 16.9194 18.3414 16.9194Z" fill="#1F3747"/>
<path d="M29.8016 47.135C29.7786 46.8588 30.0088 46.7898 30.1929 46.6978C31.0904 46.1454 31.8498 45.4551 32.6092 44.7417C33.3456 44.0283 33.9899 43.2459 34.5192 42.3714C34.9795 41.612 35.3937 40.8295 35.6929 39.9781C35.8079 39.7019 36.0151 39.4488 35.969 39.1036C36.1301 38.7584 36.2222 38.3902 36.2222 37.999C36.3833 37.8149 36.2682 37.6078 36.3142 37.4007C36.5213 36.7103 36.6364 36.0199 36.6364 35.3065C36.6594 31.9697 36.6824 28.6559 36.6364 25.319C36.6134 24.4676 36.6594 23.5931 36.6594 22.7416C36.6594 21.8671 36.6364 21.0157 36.3142 20.1872C36.2682 20.0491 36.2452 19.888 36.1531 19.773C36.1301 19.6119 36.0381 19.4508 35.946 19.3127C35.7619 18.9905 35.5548 18.6684 35.3707 18.3692L35.3937 18.3462C36.2912 19.1977 36.7284 20.2562 36.7515 21.4529C36.7745 26.1475 36.8435 30.842 36.7515 35.5366C36.6594 39.84 34.7954 43.3149 31.4816 46.0074C30.9063 46.4216 30.4 46.8128 29.8016 47.135Z" fill="#364651"/>
<path d="M9.09033 48.2396C9.27443 48.0555 9.45853 48.2166 9.5736 48.2856C10.31 48.7229 11.1615 48.7459 11.9669 48.976C13.2556 49.3672 14.5904 49.3212 15.9251 49.3212C17.9962 49.3212 20.0904 49.3212 22.1615 49.3212C22.8059 49.3212 23.4502 49.2521 24.0716 49.1601C25.9126 48.8379 27.6615 48.2396 29.2724 47.3191C29.4335 47.227 29.5946 47.158 29.8017 47.158C28.3979 48.1015 26.8561 48.6998 25.2222 49.0911C23.8875 49.4132 22.5297 49.5283 21.172 49.5053C18.8017 49.4823 16.4314 49.5743 14.0611 49.4593C12.3351 49.3442 10.6782 48.976 9.09033 48.2396Z" fill="#364651"/>
<path d="M31.0908 16.9194C30.8376 16.8964 30.8837 16.6893 30.8837 16.5282C30.8606 15.7227 31.0217 14.9173 30.9757 14.0888C30.8837 12.478 30.8837 10.8671 30.4694 9.2792C30.1703 8.17459 29.71 7.13902 29.1117 6.19551C28.6975 5.52814 28.2372 4.9068 27.6849 4.30847C27.2246 3.82521 26.7644 3.34194 26.2811 2.9047C26.2351 2.85867 26.2581 2.76662 26.2351 2.69759C27.892 3.94027 29.0887 5.55115 29.9632 7.41518C30.7226 9.04907 31.0678 10.775 31.0678 12.57C31.0678 14.0198 31.0908 15.4696 31.0908 16.9194Z" fill="#364651"/>
<path d="M0.897962 18.8985C0.851937 19.2207 0.736874 19.4968 0.575786 19.75C0.253609 20.3253 0.161558 20.9466 0.161558 21.568C0.161558 25.9634 0.161558 30.3358 0.138546 34.7312C0.138546 35.6057 0.230596 36.4571 0.368672 37.3086C0.391685 37.4237 0.414697 37.5387 0.253609 37.5617C-0.0225429 36.4111 0.000469641 35.2375 0.000469641 34.0868C0.000469641 29.9446 0.000469728 25.8023 0.0234824 21.66C0.046495 20.6475 0.253609 19.7039 0.897962 18.8985Z" fill="#364651"/>
<path d="M7.15737 6.72482C7.24942 7.18508 6.88121 7.50725 6.76615 7.89847C6.53602 8.63487 6.14481 9.37128 6.1218 10.1307C6.09879 10.614 5.9377 11.0512 5.89167 11.5115C5.7536 13.2834 5.79962 15.0324 5.84565 16.8044C5.84565 16.8964 5.82263 16.9885 5.73058 16.9885C5.36238 17.0345 4.97117 17.1726 4.62598 16.9194C4.672 16.9194 4.71803 16.8964 4.74104 16.8964C5.0402 16.8504 5.45443 17.0345 5.61552 16.8044C5.7536 16.6203 5.66155 16.229 5.66155 15.9299C5.68456 14.388 5.59251 12.8692 5.73058 11.3273C5.89167 9.73948 6.3059 8.15161 7.15737 6.72482Z" fill="#364651"/>
<path d="M0.299561 37.7458C0.621737 37.7689 0.5527 38.068 0.575712 38.2291C0.851864 39.5408 1.31212 40.7835 2.0025 41.9111C2.32467 42.4404 2.62384 42.9697 3.03806 43.43C3.13011 43.522 3.13011 43.6371 3.1071 43.7521C2.11756 42.6936 1.47321 41.4279 0.943915 40.0931C0.64475 39.3337 0.391611 38.5513 0.299561 37.7458Z" fill="#364651"/>
<path d="M11.4609 2.03023C11.4839 2.19132 11.3688 2.28337 11.2538 2.3524C10.0341 3.0658 9.1136 4.12438 8.26213 5.22898C7.98598 5.59719 7.6638 5.96539 7.4797 6.40263C7.43368 6.51769 7.34163 6.58673 7.22656 6.58673C8.23912 4.69969 9.61988 3.18086 11.4609 2.03023Z" fill="#364651"/>
<path d="M3.65942 44.3965C3.86654 44.3735 3.9816 44.5346 4.09666 44.6727C4.87909 45.5471 5.7996 46.2375 6.76613 46.8819C7.36446 47.2731 8.03182 47.5722 8.67618 47.9174C8.81425 47.9865 9.02137 48.0095 9.04438 48.2166C6.95023 47.3651 5.15524 46.0994 3.65942 44.3965Z" fill="#364651"/>
<path d="M31.9879 17.0575C31.7118 16.9884 31.3896 17.1956 31.1365 16.9194C32.5863 16.8043 33.921 17.0575 35.0716 18.024C35.1867 18.1161 35.2557 18.2311 35.3708 18.3232L35.3478 18.3462C35.1637 18.2081 34.9566 18.0931 34.7034 18.1391C34.7034 18.07 34.6804 18.001 34.6114 17.978C34.5884 17.955 34.5654 17.932 34.5193 17.8859C34.5193 17.7248 34.3813 17.7249 34.2662 17.7249C34.0591 17.4027 33.7369 17.3797 33.4147 17.3797C33.3687 17.3106 33.3227 17.2876 33.2536 17.2876C33.2536 17.1265 33.1156 17.1265 33.0005 17.1265C32.8624 17.1265 32.7243 17.1265 32.5863 17.1265C32.4712 17.1265 32.3561 17.1265 32.2411 17.1265C32.149 17.1265 32.057 17.1035 31.9879 17.0575Z" fill="#364651"/>
<path d="M4.39598 16.9424C4.34996 16.9884 4.30393 17.0575 4.23489 17.0805C3.31439 17.2185 2.53196 17.6098 1.77254 18.1391C1.72652 18.1621 1.63447 18.1391 1.56543 18.1391C2.37087 17.4027 3.31439 17.0344 4.39598 16.9424Z" fill="#364651"/>
<path d="M20.7349 0.23524C20.0906 0.350303 19.4462 0.166202 18.7789 0.14319C18.5948 0.14319 18.4337 0.166202 18.2496 0.166202C18.0655 0.166202 17.8123 0.304278 17.6973 0.0281266C18.7328 -0.0178987 19.7454 -0.0409113 20.7349 0.23524Z" fill="#364651"/>
<path d="M24.0715 1.33986C23.7953 1.4089 23.5422 1.27082 23.3121 1.15576C22.6907 0.856594 22.0464 0.672493 21.379 0.488392C21.2639 0.465379 21.1259 0.465379 21.0798 0.304291C22.1384 0.488392 23.151 0.810569 24.0715 1.33986Z" fill="#364651"/>
<path d="M14.4294 0.62645C14.2222 1.04068 13.785 0.994652 13.4628 1.10971C13.0486 1.24779 12.6574 1.43189 12.3122 1.68503C12.1281 1.80009 11.944 1.86913 11.7139 1.86913C12.5423 1.29382 13.4628 0.879589 14.4294 0.62645Z" fill="#364651"/>
<path d="M17.5594 0.0281219C17.1221 0.304274 16.6158 0.304274 16.1326 0.212223C16.5928 0.0971598 17.0761 0.0511346 17.5594 0.0281219Z" fill="#364651"/>
<path d="M25.1531 1.93817C24.6929 1.89215 24.3477 1.66202 24.0715 1.31683C24.4858 1.47792 24.8309 1.68504 25.1531 1.93817Z" fill="#364651"/>
<path d="M26.258 2.7206C25.8898 2.58253 25.4986 2.46747 25.3145 2.05324C25.6596 2.21433 25.9818 2.44445 26.258 2.7206Z" fill="#364651"/>
<path d="M15.6952 0.304291C15.35 0.580442 14.9358 0.64948 14.4985 0.603455C14.8897 0.442367 15.281 0.350316 15.6952 0.304291Z" fill="#364651"/>
<path d="M1.58833 18.1391C1.45025 18.4612 1.28916 18.7834 0.897949 18.8985C1.08205 18.5993 1.28916 18.3232 1.58833 18.1391Z" fill="#364651"/>
<path d="M3.10718 43.7521C3.42935 43.7751 3.49839 44.0053 3.54442 44.2584C3.36032 44.1203 3.19923 43.9592 3.10718 43.7521Z" fill="#364651"/>
<path d="M11.6448 1.91516C11.6218 2.03022 11.5527 2.05324 11.4607 2.05324C11.5297 1.9842 11.5758 1.93817 11.6448 1.91516Z" fill="#364651"/>
<path d="M25.3147 2.05323C25.2456 2.05323 25.1766 2.03022 25.1536 1.96118C25.2226 1.96118 25.2916 1.96118 25.3147 2.05323Z" fill="#364651"/>
<path d="M0.875064 36.3881C0.875064 36.296 0.852051 36.227 0.852051 36.135C0.967114 35.9969 0.921089 35.8358 0.921089 35.6977C0.921089 31.1412 0.921089 26.5847 0.921089 22.0512C0.921089 21.2688 1.01314 20.5554 1.40435 19.865C1.54243 19.6349 1.81858 19.4278 1.77256 19.0826C1.93364 19.1056 1.95666 18.9905 1.95666 18.8525C2.07172 18.8525 2.2098 18.8295 2.18678 18.6684C2.27883 18.6684 2.37088 18.6914 2.41691 18.6454C2.90017 18.2311 3.4985 18.047 4.11984 17.9089C4.16587 17.9089 4.18888 17.8169 4.2119 17.7709C4.30395 17.7709 4.37298 17.7479 4.46503 17.7479C4.60311 17.9089 4.78721 17.8399 4.9483 17.8399C7.27257 17.8399 9.57384 17.8399 11.8981 17.8399C12.0592 17.8399 12.2433 17.8169 12.4044 17.8399C13.463 18.093 14.5446 17.7479 15.6262 17.8629C16.2245 17.932 16.8919 17.8859 17.5362 17.8399C18.6408 17.7709 19.7454 17.8169 20.85 17.8169C20.9881 17.8169 21.1722 17.8629 21.2873 17.7248C21.4484 17.7248 21.6094 17.7248 21.7935 17.7248C21.9086 17.8629 22.0697 17.8169 22.2308 17.8169C24.417 17.8169 26.6032 17.8169 28.7894 17.8169C28.9275 17.8169 29.1116 17.8629 29.2266 17.7248C30.3542 17.6558 31.4819 17.7018 32.6095 17.7248C32.6555 17.7479 32.7015 17.7709 32.7706 17.7939C34.7957 18.1851 36.0384 19.865 35.9923 21.8901C35.9693 22.6726 35.9923 23.455 36.0154 24.2604C36.0154 24.5366 36.0154 24.8358 36.0154 25.1119C36.0154 27.4822 36.0154 29.8525 35.9923 32.2458C35.9923 33.7186 36.0614 35.1914 35.9003 36.6642C35.44 40.4153 33.6451 43.4069 30.6534 45.6852C27.6848 47.9634 24.3019 48.8149 20.6199 48.7229C18.8479 48.6768 17.0529 48.6999 15.258 48.6999C11.0236 48.6999 7.41065 47.181 4.46503 44.1664C3.54453 43.2228 2.7621 42.1643 2.23281 40.9216C2.25582 40.7835 2.23281 40.6684 2.16377 40.5534C1.72653 39.5178 1.40435 38.4822 1.19724 37.3776C1.08218 37.0324 1.1282 36.6642 0.875064 36.3881ZM10.8165 29.1391C11.9672 29.1391 12.8646 28.2646 12.8877 27.137C12.9107 26.0324 11.9672 25.1119 10.8395 25.1119C9.75794 25.1119 8.88346 26.0094 8.86045 27.16C8.83743 28.2416 9.73493 29.1391 10.8165 29.1391ZM27.5237 27.137C27.5237 25.9864 26.6262 25.0889 25.4986 25.1119C24.394 25.1119 23.5195 26.0094 23.5195 27.137C23.5195 28.2876 24.394 29.1621 25.5446 29.1621C26.6952 29.1391 27.5237 28.2876 27.5237 27.137ZM18.0655 35.2605C19.2852 35.2144 20.3898 34.8462 21.3333 34.1098C21.9776 33.6036 22.53 32.9822 22.7831 32.1998C22.8751 31.9236 22.8291 31.6705 22.553 31.5554C22.2538 31.4404 22.0467 31.5554 21.9086 31.8316C21.8166 32.0157 21.7475 32.1998 21.6325 32.3609C20.6429 33.8107 19.2161 34.34 17.5362 34.1789C16.1555 34.0408 14.9128 33.5345 14.3144 32.1077C14.1994 31.8316 13.9462 31.7856 13.7161 31.8546C13.463 31.9236 13.3709 32.1308 13.44 32.3839C13.486 32.522 13.555 32.6831 13.6241 32.7981C14.6136 34.5241 16.2015 35.1914 18.0655 35.2605Z" fill="#62CCB8"/>
<path d="M6.58211 10.9131C6.58211 10.8671 6.60512 10.798 6.60512 10.752C6.95031 10.4068 6.90428 9.9926 6.85826 9.57837C7.2955 7.87544 8.07793 6.3566 9.22856 5.02187C12.8646 0.787544 18.5947 -0.478151 23.6115 1.96119C27.5236 3.87124 29.7558 7.11602 30.2391 11.4884C30.4232 13.1914 30.2851 14.8943 30.3081 16.5972C30.3081 16.8734 30.2161 16.9194 29.9629 16.9194C28.8583 16.9194 27.7767 16.8964 26.6721 16.9194C26.35 16.9194 26.35 16.7353 26.35 16.5282C26.35 15.3085 26.35 14.0888 26.35 12.8692C26.3269 10.8671 25.7746 9.02607 24.3939 7.53025C22.1386 5.04488 19.3311 4.26245 16.0863 5.11392C14.8206 5.4361 13.7851 6.14949 12.8185 6.97794C12.7955 6.97794 12.7725 6.95493 12.7495 6.95493C12.7495 7.00096 12.7265 7.02397 12.7265 7.06999C12.6805 7.11602 12.6114 7.18506 12.5654 7.23108C12.4503 7.23108 12.3813 7.27711 12.4043 7.41518C12.3813 7.4382 12.3353 7.48422 12.3123 7.50723C11.9671 7.55326 11.852 7.8064 11.806 8.10556C11.5989 8.12857 11.5989 8.28966 11.6219 8.42774C11.3227 8.40473 11.3457 8.58883 11.3917 8.77293C10.9545 9.11812 10.7704 9.57837 10.7934 10.1307C10.5403 10.3148 10.4022 10.8671 10.5173 11.2123C10.4943 11.3043 10.4943 11.3734 10.4712 11.4654C10.2871 11.5575 10.3102 11.6725 10.4252 11.8106C10.4022 11.9026 10.3792 11.9717 10.3562 12.0637C10.1951 12.2018 10.2641 12.3859 10.2641 12.547C10.2641 13.7897 10.2641 15.0094 10.2641 16.252C10.2641 16.8964 10.2641 16.8964 9.64279 16.8964C8.86036 16.8964 8.07793 16.8964 7.27249 16.8964C7.1114 16.8964 6.95031 16.8734 6.76621 16.8274C6.55909 16.7813 6.51307 16.6893 6.51307 16.5052C6.55909 14.8022 6.42102 13.0763 6.58211 11.3734C6.67416 11.1662 6.72018 11.0052 6.58211 10.9131Z" fill="#63CAB7"/>
<path d="M35.9692 25.0889C35.9692 24.8127 35.9692 24.5136 35.9692 24.2374C36.1072 24.1454 36.1533 24.0073 36.1072 23.8692C35.9922 23.478 36.0612 23.0638 36.0382 22.6495C35.9922 21.9131 36.1303 21.1767 35.9692 20.4633C35.9001 20.1872 36.1072 20.1642 36.3144 20.1642C36.6365 20.9926 36.6365 21.8441 36.6595 22.7186C36.6595 23.57 36.6135 24.4445 36.6365 25.296C36.6826 28.6328 36.6596 31.9466 36.6365 35.2835C36.6365 35.9969 36.5215 36.6872 36.3144 37.3776C35.9922 37.5847 35.9692 37.7228 36.2223 37.9759C36.2223 38.3672 36.1303 38.7354 35.9692 39.0806C35.601 38.6663 35.739 38.2061 35.8311 37.7688C35.9692 37.0785 36.0612 36.3881 36.0612 35.6977C36.0612 32.3148 36.0612 28.955 36.0612 25.5721C36.0382 25.411 36.0842 25.2269 35.9692 25.0889Z" fill="#1C3344"/>
<path d="M21.7704 17.7248C21.6094 17.7248 21.4483 17.7248 21.2642 17.7248C21.1491 17.7248 21.011 17.7018 20.896 17.7018C15.7641 17.7018 10.6323 17.7018 5.50051 17.7018C5.22436 17.7018 4.97122 17.7478 4.69507 17.6558C4.94821 17.5637 5.22436 17.5637 5.4775 17.5637C14.2223 17.5637 22.9671 17.5637 31.7119 17.5637C31.988 17.6098 32.2872 17.4717 32.5634 17.6558C32.5634 17.6788 32.5634 17.7018 32.5634 17.7248C31.4357 17.7018 30.3081 17.6558 29.1805 17.7248C28.7203 17.7248 28.26 17.7018 27.7997 17.7018C25.7977 17.7018 23.7725 17.6788 21.7704 17.7248Z" fill="#092F38"/>
<path d="M1.74948 19.0826C1.7955 19.4278 1.51935 19.6119 1.38128 19.865C0.990061 20.5554 0.898011 21.2688 0.898011 22.0512C0.921024 26.6077 0.898011 31.1642 0.898011 35.6977C0.898011 35.8588 0.944036 36.0199 0.828973 36.135C0.690897 35.3295 0.759935 34.5011 0.759935 33.6956C0.759935 29.6684 0.759935 25.6412 0.759935 21.591C0.782948 20.6475 1.0591 19.773 1.74948 19.0826Z" fill="#6AB1AC"/>
<path d="M6.58203 10.9131C6.72011 11.0281 6.67408 11.1662 6.67408 11.3043C6.48998 13.0072 6.65107 14.7332 6.60505 16.4361C6.60505 16.6202 6.65107 16.7123 6.85819 16.7583C7.01927 16.7813 7.18036 16.8273 7.36446 16.8273C8.14689 16.8273 8.92932 16.8273 9.73476 16.8273C10.3561 16.8273 10.3561 16.8273 10.3561 16.183C10.3561 14.9403 10.3561 13.7206 10.3561 12.4779C10.3561 12.3169 10.2871 12.1328 10.4482 11.9947C10.4712 13.1223 10.4712 14.2729 10.4712 15.4005C10.4712 15.8148 10.4482 16.206 10.4482 16.6202C10.4482 16.8273 10.3791 16.9194 10.172 16.9194C9.04439 16.9194 7.89375 16.9194 6.76613 16.9194C6.58203 16.9194 6.48998 16.8503 6.48998 16.6432C6.513 14.7792 6.42094 12.9152 6.55902 11.0512C6.513 11.0051 6.55902 10.9591 6.58203 10.9131Z" fill="#6EBFB6"/>
<path d="M32.5863 17.6558C32.3102 17.4947 32.011 17.6098 31.7349 17.5638C31.7349 17.4487 31.7349 17.3336 31.896 17.3106C31.942 17.3336 31.988 17.3567 32.034 17.3797C32.034 17.3567 32.057 17.3567 32.057 17.3336C32.011 17.3336 31.942 17.3106 31.896 17.3106C31.919 17.2186 31.942 17.1495 31.988 17.0575C32.0801 17.0805 32.1491 17.1035 32.2411 17.1495C32.3562 17.2646 32.4713 17.2646 32.5863 17.1495C32.7244 17.1495 32.8625 17.1495 33.0006 17.1495C33.0006 17.3106 33.1386 17.3336 33.2537 17.3106C33.2537 17.4717 33.3227 17.4257 33.4148 17.4027C33.737 17.4027 34.0591 17.4257 34.2663 17.7479C34.1972 18.024 34.4273 17.886 34.5194 17.909C34.5424 17.932 34.5654 17.955 34.6114 18.001C34.6114 18.0701 34.6345 18.1391 34.7035 18.1621C34.9566 18.1161 35.1407 18.2311 35.3478 18.3692C35.5319 18.6914 35.7391 19.0136 35.9232 19.3127C36.0152 19.4508 36.1073 19.5889 36.1303 19.773C35.9922 19.9801 35.9002 20.1642 35.716 19.773C35.555 19.4048 35.4629 18.9675 35.0487 18.7374C34.7725 18.5763 34.5424 18.3462 34.2432 18.2081C34.0591 18.1161 34.0131 17.8629 33.806 17.8399C33.3918 17.7939 33.0006 17.6328 32.5863 17.6558Z" fill="#1C3344"/>
<path d="M4.69503 17.6558C4.94817 17.7478 5.22432 17.7018 5.50048 17.7018C10.6323 17.7018 15.7641 17.7018 20.8959 17.7018C21.011 17.7018 21.1491 17.7248 21.2641 17.7248C21.1491 17.8629 20.988 17.8169 20.8269 17.8169C19.7223 17.8169 18.6177 17.7709 17.5131 17.8399C16.8687 17.8859 16.2244 17.9319 15.603 17.8629C14.5214 17.7478 13.4628 18.093 12.3813 17.8399C12.2202 17.7939 12.0361 17.8399 11.875 17.8399C9.5507 17.8399 7.24944 17.8399 4.92516 17.8399C4.76407 17.8399 4.57997 17.9089 4.44189 17.7478C4.55696 17.7018 4.626 17.6788 4.69503 17.6558Z" fill="#77CBBF"/>
<path d="M0.875 36.3881C1.10513 36.6642 1.08211 37.0324 1.15115 37.3546C1.35827 38.4592 1.68044 39.5178 2.11768 40.5304C2.16371 40.6454 2.20973 40.7605 2.18672 40.8986C1.63442 40.0011 1.35827 39.0115 1.12814 37.999C0.990063 37.4697 0.898013 36.9404 0.875 36.3881Z" fill="#6AB1AC"/>
<path d="M4.21188 17.7479C4.18887 17.7939 4.16585 17.8629 4.11983 17.8859C3.49849 18.024 2.90016 18.2081 2.41689 18.6223C2.37087 18.6684 2.25581 18.6454 2.18677 18.6454C2.73907 18.07 3.45246 17.8399 4.21188 17.7479Z" fill="#6AB1AC"/>
<path d="M10.8164 10.0846C10.8164 9.53234 11.0005 9.0951 11.4147 8.7269C11.2076 9.18715 11.0235 9.62439 10.8164 10.0846Z" fill="#6EBFB6"/>
<path d="M6.85836 9.55537C6.90439 9.9696 6.95041 10.3838 6.60522 10.729C6.62824 10.3378 6.72029 9.94659 6.85836 9.55537Z" fill="#6EBFB6"/>
<path d="M10.5405 11.1662C10.4255 10.821 10.5635 10.2687 10.8167 10.0846C10.7246 10.4298 10.6326 10.798 10.5405 11.1662Z" fill="#6EBFB6"/>
<path d="M11.8521 8.05954C11.8981 7.76038 11.9901 7.50724 12.3583 7.46121C12.2203 7.69134 12.0592 7.89845 11.8521 8.05954Z" fill="#6EBFB6"/>
<path d="M11.4149 8.7269C11.3689 8.51978 11.3689 8.3587 11.645 8.38171C11.599 8.51978 11.553 8.65786 11.4149 8.7269Z" fill="#6EBFB6"/>
<path d="M10.4712 11.7416C10.3561 11.6035 10.3331 11.4884 10.5172 11.3964C10.5172 11.5344 10.5402 11.6495 10.4712 11.7416Z" fill="#6EBFB6"/>
<path d="M11.6448 8.38172C11.6448 8.22063 11.6448 8.08255 11.8289 8.05954C11.8289 8.19762 11.7598 8.31268 11.6448 8.38172Z" fill="#6EBFB6"/>
<path d="M1.95656 18.8524C1.95656 18.9675 1.93355 19.0826 1.77246 19.0826C1.79547 18.9675 1.8415 18.8985 1.95656 18.8524Z" fill="#6AB1AC"/>
<path d="M2.18667 18.6453C2.20968 18.8294 2.09462 18.8294 1.95654 18.8294C2.00257 18.7374 2.07161 18.6914 2.18667 18.6453Z" fill="#6AB1AC"/>
<path d="M12.4273 7.36916C12.4042 7.2541 12.4733 7.18506 12.5884 7.18506C12.5653 7.30012 12.5193 7.34615 12.4273 7.36916Z" fill="#6EBFB6"/>
<path d="M12.7493 7.04698C12.7493 7.00095 12.7723 6.97794 12.7723 6.93192C12.7953 6.93192 12.8183 6.95493 12.8413 6.95493C12.7953 6.97794 12.7723 7.02397 12.7493 7.04698Z" fill="#6EBFB6"/>
<path d="M12.3352 7.46121C12.3582 7.43819 12.4042 7.39217 12.4273 7.36916C12.3812 7.39217 12.3582 7.43819 12.3352 7.46121Z" fill="#6EBFB6"/>
<path d="M32.5862 17.6558C33.0235 17.6328 33.4147 17.7939 33.8289 17.8399C34.036 17.8629 34.0821 18.1161 34.2662 18.2081C34.5423 18.3462 34.7955 18.5763 35.0716 18.7374C35.4858 18.9675 35.5549 19.4048 35.739 19.773C35.9231 20.1642 36.0151 19.9801 36.1532 19.773C36.2683 19.888 36.2683 20.0491 36.3143 20.1872C36.1072 20.1872 35.9231 20.2102 35.9691 20.4864C36.1302 21.2228 35.9921 21.9592 36.0381 22.6726C36.0612 23.0868 35.9921 23.478 36.1072 23.8922C36.1532 24.0303 36.1072 24.1684 35.9691 24.2604C35.9691 23.478 35.9231 22.6956 35.9461 21.8901C36.0151 19.865 34.7494 18.1851 32.7243 17.7939C32.6783 17.7939 32.6093 17.7479 32.5632 17.7249C32.5632 17.7018 32.5632 17.6788 32.5862 17.6558Z" fill="#1F3747"/>
<path d="M36.1992 37.999C35.9231 37.7689 35.9461 37.6308 36.2913 37.4007C36.2453 37.6078 36.3603 37.8149 36.1992 37.999Z" fill="#1F3747"/>
<path d="M34.5195 17.909C34.4275 17.8629 34.1973 18.024 34.2664 17.7479C34.3814 17.7479 34.4965 17.7479 34.5195 17.909Z" fill="#1F3747"/>
<path d="M33.2536 17.3106C33.1386 17.3106 33.0005 17.3106 33.0005 17.1495C33.1156 17.1495 33.2536 17.1495 33.2536 17.3106Z" fill="#1F3747"/>
<path d="M32.5632 17.1495C32.4481 17.2646 32.3331 17.2646 32.218 17.1495C32.3561 17.1495 32.4712 17.1495 32.5632 17.1495Z" fill="#1F3747"/>
<path d="M33.4149 17.4027C33.3229 17.4487 33.2308 17.4717 33.2538 17.3106C33.3229 17.3106 33.3689 17.3336 33.4149 17.4027Z" fill="#1F3747"/>
<path d="M34.6807 18.1621C34.6116 18.1391 34.5886 18.07 34.5886 18.001C34.6577 18.024 34.6807 18.0931 34.6807 18.1621Z" fill="#1F3747"/>
<path d="M10.8165 29.1391C9.71188 29.1391 8.8374 28.2416 8.8374 27.137C8.86041 25.9864 9.73489 25.0889 10.8165 25.0889C11.9441 25.0889 12.8876 26.0094 12.8646 27.114C12.8876 28.2646 11.9671 29.1391 10.8165 29.1391Z" fill="#1C3646"/>
<path d="M27.5237 27.137C27.5237 28.2877 26.6953 29.1391 25.5446 29.1391C24.394 29.1391 23.5195 28.2646 23.5195 27.114C23.5195 25.9864 24.394 25.0889 25.4986 25.0889C26.6492 25.0889 27.5237 25.9864 27.5237 27.137Z" fill="#1B3344"/>
<path d="M18.0652 35.2605C16.2012 35.1915 14.6133 34.5241 13.6238 32.7981C13.5547 32.6601 13.4857 32.522 13.4397 32.3839C13.3706 32.1308 13.4627 31.9237 13.7158 31.8546C13.969 31.7856 14.2221 31.8316 14.3142 32.1078C14.9125 33.5346 16.1552 34.0408 17.5359 34.1789C19.2158 34.363 20.6426 33.8107 21.6322 32.3609C21.7472 32.1998 21.8163 32.0157 21.9083 31.8316C22.0464 31.5325 22.2765 31.4174 22.5527 31.5555C22.8288 31.6705 22.8749 31.9237 22.7828 32.1998C22.5066 33.0053 21.9774 33.6036 21.333 34.1099C20.3895 34.8463 19.2849 35.2145 18.0652 35.2605Z" fill="#1C3847"/>
<path d="M21.7703 17.7248C23.7954 17.6788 25.7975 17.7018 27.8226 17.7018C28.2828 17.7018 28.7431 17.7248 29.2033 17.7248C29.0883 17.8629 28.9272 17.8169 28.7661 17.8169C26.5799 17.8169 24.3937 17.8169 22.2075 17.8169C22.0464 17.8169 21.8853 17.8859 21.7703 17.7248Z" fill="#77CBBF"/>
<path d="M31.8962 17.3106C31.9423 17.3106 32.0113 17.3336 32.0573 17.3336C32.0573 17.3566 32.0343 17.3566 32.0343 17.3796C31.9883 17.3566 31.9423 17.3336 31.8962 17.3106Z" fill="#1F3747"/>
</svg>
