<svg width="18" height="14" viewBox="0 0 18 14" fill="none" xmlns="http://www.w3.org/2000/svg">
<path d="M17.6485 4.46484C17.7891 4.35938 18 4.46484 18 4.64062V11.8125C18 12.7617 17.2266 13.5 16.3125 13.5H1.68755C0.738331 13.5 4.95911e-05 12.7617 4.95911e-05 11.8125V4.64062C4.95911e-05 4.46484 0.175831 4.35938 0.316456 4.46484C1.12505 5.09766 2.14458 5.87109 5.73052 8.47266C6.4688 9 7.73442 10.1602 9.00005 10.1602C10.2305 10.1602 11.5313 9 12.2344 8.47266C15.8204 5.87109 16.8399 5.09766 17.6485 4.46484ZM9.00005 9C8.1563 9.03516 6.99614 7.98047 6.39849 7.55859C1.72271 4.18359 1.37114 3.86719 0.316456 3.02344C0.105518 2.88281 4.95911e-05 2.63672 4.95911e-05 2.35547V1.6875C4.95911e-05 0.773438 0.738331 0 1.68755 0H16.3125C17.2266 0 18 0.773438 18 1.6875V2.35547C18 2.63672 17.8594 2.88281 17.6485 3.02344C16.5938 3.86719 16.2422 4.18359 11.5665 7.55859C10.9688 7.98047 9.80864 9.03516 9.00005 9Z" fill="#5ED1C0"/>
</svg>
