<svg width="16" height="16" viewBox="0 0 16 16" fill="none" xmlns="http://www.w3.org/2000/svg">
<path d="M7.90996 3.83203C10.1248 3.83203 11.9529 5.66016 11.9529 7.875C11.9529 10.125 10.1248 11.918 7.90996 11.918C5.65996 11.918 3.86699 10.125 3.86699 7.875C3.86699 5.66016 5.65996 3.83203 7.90996 3.83203ZM7.90996 10.5117C9.35137 10.5117 10.5115 9.35156 10.5115 7.875C10.5115 6.43359 9.35137 5.27344 7.90996 5.27344C6.4334 5.27344 5.27324 6.43359 5.27324 7.875C5.27324 9.35156 6.46855 10.5117 7.90996 10.5117ZM13.0428 3.69141C13.0428 4.21875 12.6209 4.64062 12.0936 4.64062C11.5662 4.64062 11.1443 4.21875 11.1443 3.69141C11.1443 3.16406 11.5662 2.74219 12.0936 2.74219C12.6209 2.74219 13.0428 3.16406 13.0428 3.69141ZM15.7146 4.64062C15.785 5.94141 15.785 9.84375 15.7146 11.1445C15.6443 12.4102 15.3631 13.5 14.449 14.4492C13.535 15.3633 12.41 15.6445 11.1443 15.7148C9.84355 15.7852 5.94121 15.7852 4.64043 15.7148C3.3748 15.6445 2.28496 15.3633 1.33574 14.4492C0.421679 13.5 0.140429 12.4102 0.070117 11.1445C-0.000195503 9.84375 -0.000195503 5.94141 0.070117 4.64062C0.140429 3.375 0.421679 2.25 1.33574 1.33594C2.28496 0.421875 3.3748 0.140625 4.64043 0.0703125C5.94121 0 9.84355 0 11.1443 0.0703125C12.41 0.140625 13.535 0.421875 14.449 1.33594C15.3631 2.25 15.6443 3.375 15.7146 4.64062ZM14.0271 12.5156C14.449 11.4961 14.3436 9.03516 14.3436 7.875C14.3436 6.75 14.449 4.28906 14.0271 3.23438C13.7459 2.56641 13.2186 2.00391 12.5506 1.75781C11.4959 1.33594 9.03496 1.44141 7.90996 1.44141C6.7498 1.44141 4.28887 1.33594 3.26934 1.75781C2.56621 2.03906 2.03887 2.56641 1.75762 3.23438C1.33574 4.28906 1.44121 6.75 1.44121 7.875C1.44121 9.03516 1.33574 11.4961 1.75762 12.5156C2.03887 13.2188 2.56621 13.7461 3.26934 14.0273C4.28887 14.4492 6.7498 14.3438 7.90996 14.3438C9.03496 14.3438 11.4959 14.4492 12.5506 14.0273C13.2186 13.7461 13.7811 13.2188 14.0271 12.5156Z" fill="#5ED1C0"/>
</svg>
