<svg width="16" height="16" viewBox="0 0 16 16" fill="none" xmlns="http://www.w3.org/2000/svg">
<path d="M13.3594 2.32031C14.836 3.79688 15.75 5.73047 15.75 7.83984C15.75 12.1289 12.1641 15.6445 7.83989 15.6445C6.53911 15.6445 5.27349 15.293 4.11333 14.6953L4.86374e-05 15.75L1.08989 11.707C0.421924 10.5469 0.0352049 9.21094 0.0352049 7.80469C0.0352049 3.51562 3.55083 0 7.83989 0C9.94927 0 11.918 0.84375 13.3594 2.32031ZM7.83989 14.3086C11.4258 14.3086 14.4141 11.3906 14.4141 7.83984C14.4141 6.08203 13.6758 4.46484 12.4454 3.23438C11.2149 2.00391 9.5977 1.33594 7.87505 1.33594C4.28911 1.33594 1.37114 4.25391 1.37114 7.80469C1.37114 9.03516 1.7227 10.2305 2.35552 11.2852L2.5313 11.5312L1.86333 13.9219L4.32427 13.2539L4.5352 13.3945C5.55474 13.9922 6.67974 14.3086 7.83989 14.3086ZM11.4258 9.45703C11.6016 9.5625 11.7422 9.59766 11.7774 9.70312C11.8477 9.77344 11.8477 10.1602 11.6719 10.6172C11.4961 11.0742 10.7227 11.4961 10.3711 11.5312C9.73833 11.6367 9.24614 11.6016 8.01567 11.0391C6.04692 10.1953 4.7813 8.22656 4.67583 8.12109C4.57036 7.98047 3.90239 7.06641 3.90239 6.08203C3.90239 5.13281 4.39458 4.67578 4.57036 4.46484C4.74614 4.25391 4.95708 4.21875 5.0977 4.21875C5.20317 4.21875 5.3438 4.21875 5.44927 4.21875C5.58989 4.21875 5.73052 4.18359 5.9063 4.57031C6.04692 4.95703 6.4688 5.90625 6.50395 6.01172C6.53911 6.11719 6.57427 6.22266 6.50395 6.36328C6.15239 7.10156 5.73052 7.06641 5.94145 7.41797C6.71489 8.71875 7.45317 9.17578 8.61333 9.73828C8.78911 9.84375 8.89458 9.80859 9.0352 9.70312C9.14067 9.5625 9.52739 9.10547 9.63286 8.92969C9.77349 8.71875 9.91411 8.75391 10.0899 8.82422C10.2657 8.89453 11.2149 9.35156 11.4258 9.45703Z" fill="#5ED1C0"/>
</svg>
